<svg width="268" height="268" viewBox="0 0 268 268" fill="none" xmlns="http://www.w3.org/2000/svg">
<path d="M263 97.1302C263 129.967 204.431 263 139.597 263C74.7627 263 8.41431 129.967 8.41431 97.1302C8.41431 64.2938 74.7627 69.8639 139.597 69.8639C204.431 69.8639 263 64.2938 263 97.1302Z" fill="#FEDE00"/>
<path d="M72.0607 47.8994L79.1326 43.355L100.033 77.4552L92.9162 82.4052L72.0607 47.8994Z" fill="#47545C"/>
<path d="M7 15.1689L10.7201 7L79.1326 43.355L72.0607 47.8994L7 15.1689Z" fill="#47545C"/>
<path d="M187.724 47.8994L180.652 43.355L159.751 77.4552L166.868 82.4052L187.724 47.8994Z" fill="#47545C"/>
<path d="M252.785 15.1689L249.065 7L180.652 43.355L187.724 47.8994L252.785 15.1689Z" fill="#47545C"/>
<path d="M123.618 161.16C118.618 181.147 99.6411 193.066 81.2327 187.784C62.8244 182.501 24.9862 121.308 29.9865 101.321C34.9868 81.335 80.9321 110.124 99.3404 115.406C117.749 120.689 128.618 141.174 123.618 161.16Z" fill="#47545C"/>
<path d="M147.797 161.214C152.797 181.201 171.774 193.121 190.182 187.838C208.59 182.555 246.429 121.362 241.428 101.376C236.428 81.3892 190.483 110.178 172.074 115.461C153.666 120.743 142.797 141.228 147.797 161.214Z" fill="#47545C"/>
<path d="M72.0607 47.8994L79.1326 43.355M72.0607 47.8994L92.9162 82.4052L100.033 77.4552L79.1326 43.355M72.0607 47.8994L7 15.1689L10.7201 7L79.1326 43.355M187.724 47.8994L180.652 43.355M187.724 47.8994L166.868 82.4052L159.751 77.4552L180.652 43.355M187.724 47.8994L252.785 15.1689L249.065 7L180.652 43.355M263 97.1302C263 129.967 204.431 263 139.597 263C74.7627 263 8.41431 129.967 8.41431 97.1302C8.41431 64.2938 74.7627 69.8639 139.597 69.8639C204.431 69.8639 263 64.2938 263 97.1302ZM123.618 161.16C118.618 181.147 99.6411 193.066 81.2327 187.784C62.8244 182.501 24.9862 121.308 29.9865 101.321C34.9868 81.335 80.9321 110.124 99.3404 115.406C117.749 120.689 128.618 141.174 123.618 161.16ZM147.797 161.214C152.797 181.201 171.774 193.121 190.182 187.838C208.59 182.555 246.429 121.362 241.428 101.376C236.428 81.3892 190.483 110.178 172.074 115.461C153.666 120.743 142.797 141.228 147.797 161.214Z" stroke="#47545C" stroke-width="10"/>
</svg>
